<?xml version="1.0" standalone="no"?>
<svg viewBox="0 0 200 200" xmlns="http://www.w3.org/2000/svg">
  <path fill="#5BB1ED" d="M34.3,-61.9C44.5,-53.5,53,-44.5,59.8,-34.1C66.6,-23.7,71.7,-11.8,70.2,-0.9C68.6,10.1,60.4,20.1,55.2,33.1C49.9,46.1,47.4,62.1,38.7,67.6C30,73.2,15,68.3,1.9,65.1C-11.3,61.9,-22.6,60.2,-34.7,56.7C-46.8,53.1,-59.7,47.5,-63.3,37.7C-66.8,28,-60.9,14,-62.8,-1.1C-64.7,-16.2,-74.3,-32.3,-73,-45.8C-71.6,-59.3,-59.2,-70.1,-45.2,-76.4C-31.2,-82.6,-15.6,-84.3,-1.8,-81.2C12,-78.1,24,-70.3,34.3,-61.9Z" transform="translate(100 100)" />
</svg>
